<?xml version="1.0" encoding="UTF-8"?>
<!DOCTYPE svg PUBLIC "-//W3C//DTD SVG 1.1//EN" "http://www.w3.org/Graphics/SVG/1.1/DTD/svg11.dtd">
<svg xmlns="http://www.w3.org/2000/svg" version="1.1" width="807px" height="365px" style="shape-rendering:geometricPrecision; text-rendering:geometricPrecision; image-rendering:optimizeQuality; fill-rule:evenodd; clip-rule:evenodd" xmlns:xlink="http://www.w3.org/1999/xlink">
<g><path style="opacity:1" fill="#fefefe" d="M -0.5,-0.5 C 54.5,-0.5 109.5,-0.5 164.5,-0.5C 124.529,6.48508 89.5295,23.6517 59.5,51C 45.9173,63.7459 33.2506,77.2459 21.5,91.5C 21.6667,91.8333 21.8333,92.1667 22,92.5C 33.7456,81.5811 45.9122,71.2478 58.5,61.5C 59.4954,73.989 59.8287,86.6557 59.5,99.5C 37.29,120.701 17.29,143.701 -0.5,168.5C -0.5,112.167 -0.5,55.8333 -0.5,-0.5 Z"/></g>
<g><path style="opacity:1" fill="#fefefe" d="M 183.5,-0.5 C 391.167,-0.5 598.833,-0.5 806.5,-0.5C 806.5,60.8333 806.5,122.167 806.5,183.5C 779.833,183.5 753.167,183.5 726.5,183.5C 726.5,210.167 726.5,236.833 726.5,263.5C 731.833,263.5 737.167,263.5 742.5,263.5C 742.5,252.833 742.5,242.167 742.5,231.5C 753.167,231.5 763.833,231.5 774.5,231.5C 774.5,242.167 774.5,252.833 774.5,263.5C 785.167,263.5 795.833,263.5 806.5,263.5C 806.5,273.167 806.5,282.833 806.5,292.5C 802.476,285.319 796.476,280.486 788.5,278C 772.503,277.5 756.503,277.333 740.5,277.5C 740.5,286.167 740.5,294.833 740.5,303.5C 746.5,303.5 752.5,303.5 758.5,303.5C 758.5,299.5 758.5,295.5 758.5,291.5C 767.016,290.885 775.349,291.718 783.5,294C 790.137,299.711 792.304,306.877 790,315.5C 787.524,322.987 782.357,326.987 774.5,327.5C 710.167,327.5 645.833,327.5 581.5,327.5C 581.83,310.658 581.497,293.992 580.5,277.5C 574.833,277.5 569.167,277.5 563.5,277.5C 562.503,293.992 562.17,310.658 562.5,327.5C 558.833,327.5 555.167,327.5 551.5,327.5C 551.83,310.658 551.497,293.992 550.5,277.5C 545.167,277.5 539.833,277.5 534.5,277.5C 533.503,294.325 533.17,311.325 533.5,328.5C 529.5,328.5 525.5,328.5 521.5,328.5C 521.5,311.5 521.5,294.5 521.5,277.5C 515.5,277.5 509.5,277.5 503.5,277.5C 503.5,294.5 503.5,311.5 503.5,328.5C 449.5,328.5 395.5,328.5 341.5,328.5C 341.5,311.5 341.5,294.5 341.5,277.5C 326.775,277.068 312.108,277.568 297.5,279C 290.119,282.715 285.285,288.549 283,296.5C 279.906,308.866 281.573,320.533 288,331.5C 297.589,341.903 309.422,345.57 323.5,342.5C 324.239,346.746 322.573,349.413 318.5,350.5C 307.833,350.5 297.167,350.5 286.5,350.5C 286.5,355.167 286.5,359.833 286.5,364.5C 259.833,364.5 233.167,364.5 206.5,364.5C 207.401,266.448 210.068,168.448 214.5,70.5C 241.139,75.2127 266.139,84.3794 289.5,98C 319.473,115.422 346.639,136.589 371,161.5C 368.248,155.688 364.915,150.021 361,144.5C 346.408,125.24 329.741,107.906 311,92.5C 310.333,77.5 310.333,62.5 311,47.5C 326.099,56.2575 339.765,66.9241 352,79.5C 352.167,79.1667 352.333,78.8333 352.5,78.5C 308.237,26.6216 251.903,0.288267 183.5,-0.5 Z"/></g>
<g><path style="opacity:1" fill="#bb9b30" d="M 164.5,-0.5 C 170.833,-0.5 177.167,-0.5 183.5,-0.5C 251.903,0.288267 308.237,26.6216 352.5,78.5C 352.333,78.8333 352.167,79.1667 352,79.5C 339.765,66.9241 326.099,56.2575 311,47.5C 310.333,62.5 310.333,77.5 311,92.5C 329.741,107.906 346.408,125.24 361,144.5C 364.915,150.021 368.248,155.688 371,161.5C 346.639,136.589 319.473,115.422 289.5,98C 266.139,84.3794 241.139,75.2127 214.5,70.5C 210.068,168.448 207.401,266.448 206.5,364.5C 204.167,364.5 201.833,364.5 199.5,364.5C 137.434,345.728 75.1008,327.395 12.5,309.5C 12.3335,297.829 12.5001,286.162 13,274.5C 63.9625,289.533 115.129,303.866 166.5,317.5C 168.963,239.176 171.296,160.843 173.5,82.5C 173.167,78.1667 172.833,73.8333 172.5,69.5C 124.086,72.1202 82.4196,89.9535 47.5,123C 31.0208,138.312 15.0208,154.146 -0.5,170.5C -0.5,169.833 -0.5,169.167 -0.5,168.5C 17.29,143.701 37.29,120.701 59.5,99.5C 60.8252,86.6606 60.8252,73.6606 59.5,60.5C 58.8933,60.6236 58.56,60.9569 58.5,61.5C 45.9122,71.2478 33.7456,81.5811 22,92.5C 21.8333,92.1667 21.6667,91.8333 21.5,91.5C 33.2506,77.2459 45.9173,63.7459 59.5,51C 89.5295,23.6517 124.529,6.48508 164.5,-0.5 Z"/></g>
<g><path style="opacity:1" fill="#fefdfc" d="M 152.5,50.5 C 150.522,39.2146 149.855,27.5479 150.5,15.5C 161.108,12.1416 172.108,10.8082 183.5,11.5C 183.5,23.5 183.5,35.5 183.5,47.5C 173.024,47.5144 162.691,48.5144 152.5,50.5 Z"/></g>
<g><path style="opacity:1" fill="#fdfdfb" d="M 190.5,12.5 C 200.848,12.1139 211.015,13.1139 221,15.5C 221.5,27.1619 221.667,38.8286 221.5,50.5C 211.16,49.56 200.827,48.56 190.5,47.5C 190.5,35.8333 190.5,24.1667 190.5,12.5 Z"/></g>
<g><path style="opacity:1" fill="#fefdfd" d="M 141.5,17.5 C 142.82,29.402 142.82,41.402 141.5,53.5C 130.436,56.3619 119.77,60.3619 109.5,65.5C 108.167,53.5 108.167,41.5 109.5,29.5C 119.815,24.507 130.481,20.507 141.5,17.5 Z"/></g>
<g><path style="opacity:1" fill="#d9c88f" d="M 150.5,15.5 C 149.855,27.5479 150.522,39.2146 152.5,50.5C 151.791,51.404 150.791,51.7373 149.5,51.5C 149.172,39.3217 149.505,27.3217 150.5,15.5 Z"/></g>
<g><path style="opacity:1" fill="#fefefd" d="M 263.5,26.5 C 263.829,39.0113 263.495,51.3446 262.5,63.5C 251.586,59.6398 240.586,55.9732 229.5,52.5C 228.501,40.5185 228.168,28.5185 228.5,16.5C 240.496,19.0785 252.162,22.4119 263.5,26.5 Z"/></g>
<g><path style="opacity:1" fill="#d1bd76" d="M 141.5,17.5 C 141.56,16.9569 141.893,16.6236 142.5,16.5C 142.833,22.6667 143.167,28.8333 143.5,35C 143.496,41.538 142.83,47.7047 141.5,53.5C 142.82,41.402 142.82,29.402 141.5,17.5 Z"/></g>
<g><path style="opacity:1" fill="#fefefd" d="M 272.5,29.5 C 283.046,33.1077 293.046,37.7744 302.5,43.5C 302.829,57.6766 302.496,71.6766 301.5,85.5C 291.796,78.9823 281.796,72.9823 271.5,67.5C 271.171,54.6557 271.505,41.989 272.5,29.5 Z"/></g>
<g><path style="opacity:1" fill="#e2d4a8" d="M 272.5,29.5 C 271.505,41.989 271.171,54.6557 271.5,67.5C 270.175,54.6606 270.175,41.6606 271.5,28.5C 272.107,28.6236 272.44,28.9569 272.5,29.5 Z"/></g>
<g><path style="opacity:1" fill="#fefdfc" d="M 68.5,92.5 C 67.5048,80.3446 67.1714,68.0113 67.5,55.5C 77.9276,47.7754 88.9276,40.7754 100.5,34.5C 101.833,46.5 101.833,58.5 100.5,70.5C 89.0717,76.8683 78.4051,84.2017 68.5,92.5 Z"/></g>
<g><path style="opacity:1" fill="#cab05b" d="M 263.5,26.5 C 264.825,39.0062 264.825,51.6729 263.5,64.5C 262.893,64.3764 262.56,64.0431 262.5,63.5C 263.495,51.3446 263.829,39.0113 263.5,26.5 Z"/></g>
<g><path style="opacity:1" fill="#dfd09e" d="M 302.5,43.5 C 303.826,57.6722 303.826,72.0055 302.5,86.5C 301.893,86.3764 301.56,86.0431 301.5,85.5C 302.496,71.6766 302.829,57.6766 302.5,43.5 Z"/></g>
<g><path style="opacity:1" fill="#fefefe" d="M 199.5,364.5 C 132.833,364.5 66.1667,364.5 -0.5,364.5C -0.5,299.833 -0.5,235.167 -0.5,170.5C 15.0208,154.146 31.0208,138.312 47.5,123C 82.4196,89.9535 124.086,72.1202 172.5,69.5C 172.833,73.8333 173.167,78.1667 173.5,82.5C 171.296,160.843 168.963,239.176 166.5,317.5C 115.129,303.866 63.9625,289.533 13,274.5C 12.5001,286.162 12.3335,297.829 12.5,309.5C 75.1008,327.395 137.434,345.728 199.5,364.5 Z"/></g>
<g><path style="opacity:1" fill="#d4c284" d="M 67.5,55.5 C 67.1714,68.0113 67.5048,80.3446 68.5,92.5C 68.44,93.0431 68.1067,93.3764 67.5,93.5C 66.175,80.6729 66.175,68.0062 67.5,55.5 Z"/></g>
<g><path style="opacity:1" fill="#d4c285" d="M 58.5,61.5 C 58.56,60.9569 58.8933,60.6236 59.5,60.5C 60.8252,73.6606 60.8252,86.6606 59.5,99.5C 59.8287,86.6557 59.4954,73.989 58.5,61.5 Z"/></g>
<g><path style="opacity:1" fill="#bb9b2e" d="M 245.5,183.5 C 272.167,183.5 298.833,183.5 325.5,183.5C 325.5,188.833 325.5,194.167 325.5,199.5C 320.167,199.5 314.833,199.5 309.5,199.5C 309.5,220.833 309.5,242.167 309.5,263.5C 288.167,263.5 266.833,263.5 245.5,263.5C 245.5,252.833 245.5,242.167 245.5,231.5C 250.833,231.5 256.167,231.5 261.5,231.5C 261.5,236.833 261.5,242.167 261.5,247.5C 272.167,247.5 282.833,247.5 293.5,247.5C 293.5,231.5 293.5,215.5 293.5,199.5C 277.5,199.5 261.5,199.5 245.5,199.5C 245.5,194.167 245.5,188.833 245.5,183.5 Z"/></g>
<g><path style="opacity:1" fill="#053a5a" d="M 341.5,183.5 C 368.167,183.5 394.833,183.5 421.5,183.5C 421.5,210.167 421.5,236.833 421.5,263.5C 394.833,263.5 368.167,263.5 341.5,263.5C 341.5,236.833 341.5,210.167 341.5,183.5 Z"/></g>
<g><path style="opacity:1" fill="#053a5a" d="M 437.5,183.5 C 464.167,183.5 490.833,183.5 517.5,183.5C 517.5,188.833 517.5,194.167 517.5,199.5C 496.167,199.5 474.833,199.5 453.5,199.5C 453.5,204.833 453.5,210.167 453.5,215.5C 474.833,215.5 496.167,215.5 517.5,215.5C 517.5,231.5 517.5,247.5 517.5,263.5C 490.833,263.5 464.167,263.5 437.5,263.5C 437.5,258.167 437.5,252.833 437.5,247.5C 458.833,247.5 480.167,247.5 501.5,247.5C 501.5,242.167 501.5,236.833 501.5,231.5C 480.167,231.5 458.833,231.5 437.5,231.5C 437.5,215.5 437.5,199.5 437.5,183.5 Z"/></g>
<g><path style="opacity:1" fill="#053a5a" d="M 533.5,183.5 C 560.167,183.5 586.833,183.5 613.5,183.5C 613.5,210.167 613.5,236.833 613.5,263.5C 586.833,263.5 560.167,263.5 533.5,263.5C 533.5,236.833 533.5,210.167 533.5,183.5 Z"/></g>
<g><path style="opacity:1" fill="#053a5a" d="M 630.5,183.5 C 635.833,183.5 641.167,183.5 646.5,183.5C 646.5,204.833 646.5,226.167 646.5,247.5C 662.5,247.5 678.5,247.5 694.5,247.5C 694.5,226.167 694.5,204.833 694.5,183.5C 699.833,183.5 705.167,183.5 710.5,183.5C 710.5,210.167 710.5,236.833 710.5,263.5C 683.833,263.5 657.167,263.5 630.5,263.5C 630.5,236.833 630.5,210.167 630.5,183.5 Z"/></g>
<g><path style="opacity:1" fill="#053a5a" d="M 806.5,183.5 C 806.5,199.5 806.5,215.5 806.5,231.5C 801.167,231.5 795.833,231.5 790.5,231.5C 790.5,236.833 790.5,242.167 790.5,247.5C 795.833,247.5 801.167,247.5 806.5,247.5C 806.5,252.833 806.5,258.167 806.5,263.5C 795.833,263.5 785.167,263.5 774.5,263.5C 774.5,252.833 774.5,242.167 774.5,231.5C 763.833,231.5 753.167,231.5 742.5,231.5C 742.5,242.167 742.5,252.833 742.5,263.5C 737.167,263.5 731.833,263.5 726.5,263.5C 726.5,236.833 726.5,210.167 726.5,183.5C 753.167,183.5 779.833,183.5 806.5,183.5 Z"/></g>
<g><path style="opacity:1" fill="#fefefe" d="M 357.5,199.5 C 373.5,199.5 389.5,199.5 405.5,199.5C 405.5,215.5 405.5,231.5 405.5,247.5C 389.5,247.5 373.5,247.5 357.5,247.5C 357.5,231.5 357.5,215.5 357.5,199.5 Z"/></g>
<g><path style="opacity:1" fill="#fefefe" d="M 549.5,199.5 C 565.5,199.5 581.5,199.5 597.5,199.5C 597.5,215.5 597.5,231.5 597.5,247.5C 581.5,247.5 565.5,247.5 549.5,247.5C 549.5,231.5 549.5,215.5 549.5,199.5 Z"/></g>
<g><path style="opacity:1" fill="#fdfdfd" d="M 742.5,199.5 C 758.5,199.5 774.5,199.5 790.5,199.5C 790.5,204.833 790.5,210.167 790.5,215.5C 774.5,215.5 758.5,215.5 742.5,215.5C 742.5,210.167 742.5,204.833 742.5,199.5 Z"/></g>
<g><path style="opacity:1" fill="#fcfdfd" d="M 806.5,231.5 C 806.5,236.833 806.5,242.167 806.5,247.5C 801.167,247.5 795.833,247.5 790.5,247.5C 790.5,242.167 790.5,236.833 790.5,231.5C 795.833,231.5 801.167,231.5 806.5,231.5 Z"/></g>
<g><path style="opacity:1" fill="#053b5a" d="M 253.5,277.5 C 259.167,277.5 264.833,277.5 270.5,277.5C 270.963,303.218 270.463,328.885 269,354.5C 267.084,358.085 264.251,360.585 260.5,362C 253.563,363.288 246.563,363.788 239.5,363.5C 239.5,359.167 239.5,354.833 239.5,350.5C 246.309,351.519 250.809,348.852 253,342.5C 253.5,320.836 253.667,299.169 253.5,277.5 Z"/></g>
<g><path style="opacity:1" fill="#0b3d5c" d="M 533.5,328.5 C 534.224,326.782 534.891,324.948 535.5,323C 534.966,307.837 534.633,292.671 534.5,277.5C 539.833,277.5 545.167,277.5 550.5,277.5C 550.2,291.588 549.867,305.755 549.5,320C 550.128,322.939 550.795,325.772 551.5,328.5C 555.5,328.5 559.5,328.5 563.5,328.5C 563.5,311.5 563.5,294.5 563.5,277.5C 569.167,277.5 574.833,277.5 580.5,277.5C 580.5,294.5 580.5,311.5 580.5,328.5C 645.335,328.832 710.002,328.499 774.5,327.5C 782.357,326.987 787.524,322.987 790,315.5C 792.304,306.877 790.137,299.711 783.5,294C 775.349,291.718 767.016,290.885 758.5,291.5C 758.5,295.5 758.5,299.5 758.5,303.5C 752.5,303.5 746.5,303.5 740.5,303.5C 740.5,294.833 740.5,286.167 740.5,277.5C 756.503,277.333 772.503,277.5 788.5,278C 796.476,280.486 802.476,285.319 806.5,292.5C 806.5,303.5 806.5,314.5 806.5,325.5C 802.534,333.627 796.2,339.127 787.5,342C 719.167,342.667 650.833,342.667 582.5,342C 581.019,341.02 579.685,339.853 578.5,338.5C 576.664,339.919 574.664,341.086 572.5,342C 495.501,342.5 418.501,342.667 341.5,342.5C 342.659,352.861 338.659,360.195 329.5,364.5C 315.5,364.5 301.5,364.5 287.5,364.5C 287.5,360.167 287.5,355.833 287.5,351.5C 298.014,351.828 308.347,351.494 318.5,350.5C 322.573,349.413 324.239,346.746 323.5,342.5C 309.422,345.57 297.589,341.903 288,331.5C 281.573,320.533 279.906,308.866 283,296.5C 285.285,288.549 290.119,282.715 297.5,279C 312.108,277.568 326.775,277.068 341.5,277.5C 341.5,294.5 341.5,311.5 341.5,328.5C 395.5,328.5 449.5,328.5 503.5,328.5C 503.5,311.5 503.5,294.5 503.5,277.5C 509.5,277.5 515.5,277.5 521.5,277.5C 521.5,294.5 521.5,311.5 521.5,328.5C 525.5,328.5 529.5,328.5 533.5,328.5 Z"/></g>
<g><path style="opacity:1" fill="#89a3b3" d="M 563.5,277.5 C 563.5,294.5 563.5,311.5 563.5,328.5C 559.5,328.5 555.5,328.5 551.5,328.5C 551.5,328.167 551.5,327.833 551.5,327.5C 555.167,327.5 558.833,327.5 562.5,327.5C 562.17,310.658 562.503,293.992 563.5,277.5 Z"/></g>
<g><path style="opacity:1" fill="#2b5873" d="M 534.5,277.5 C 534.633,292.671 534.966,307.837 535.5,323C 534.891,324.948 534.224,326.782 533.5,328.5C 533.17,311.325 533.503,294.325 534.5,277.5 Z"/></g>
<g><path style="opacity:1" fill="#2a5773" d="M 550.5,277.5 C 551.497,293.992 551.83,310.658 551.5,327.5C 551.5,327.833 551.5,328.167 551.5,328.5C 550.795,325.772 550.128,322.939 549.5,320C 549.867,305.755 550.2,291.588 550.5,277.5 Z"/></g>
<g><path style="opacity:1" fill="#fbfcfc" d="M 310.5,291.5 C 314.833,291.5 319.167,291.5 323.5,291.5C 323.5,303.833 323.5,316.167 323.5,328.5C 310.774,331.578 302.608,326.911 299,314.5C 297.052,306.583 298.885,299.75 304.5,294C 306.407,292.878 308.407,292.045 310.5,291.5 Z"/></g>
<g><path style="opacity:1" fill="#355f7a" d="M 310.5,291.5 C 315.015,290.188 319.682,290.188 324.5,291.5C 324.709,292.086 325.043,292.586 325.5,293C 324.408,302.822 324.408,312.822 325.5,323C 324.891,324.948 324.224,326.782 323.5,328.5C 323.5,316.167 323.5,303.833 323.5,291.5C 319.167,291.5 314.833,291.5 310.5,291.5 Z"/></g>
<g><path style="opacity:1" fill="#fefefe" d="M 806.5,325.5 C 806.5,338.5 806.5,351.5 806.5,364.5C 795.833,364.5 785.167,364.5 774.5,364.5C 779.791,356.937 777.957,351.937 769,349.5C 762.582,350.992 760.249,354.992 762,361.5C 762.513,362.527 763.013,363.527 763.5,364.5C 618.833,364.5 474.167,364.5 329.5,364.5C 338.659,360.195 342.659,352.861 341.5,342.5C 418.501,342.667 495.501,342.5 572.5,342C 574.664,341.086 576.664,339.919 578.5,338.5C 579.685,339.853 581.019,341.02 582.5,342C 650.833,342.667 719.167,342.667 787.5,342C 796.2,339.127 802.534,333.627 806.5,325.5 Z"/></g>
<g><path style="opacity:1" fill="#acbec9" d="M 580.5,277.5 C 581.497,293.992 581.83,310.658 581.5,327.5C 645.833,327.5 710.167,327.5 774.5,327.5C 710.002,328.499 645.335,328.832 580.5,328.5C 580.5,311.5 580.5,294.5 580.5,277.5 Z"/></g>
<g><path style="opacity:1" fill="#3d667f" d="M 318.5,350.5 C 308.347,351.494 298.014,351.828 287.5,351.5C 287.5,355.833 287.5,360.167 287.5,364.5C 287.167,364.5 286.833,364.5 286.5,364.5C 286.5,359.833 286.5,355.167 286.5,350.5C 297.167,350.5 307.833,350.5 318.5,350.5 Z"/></g>
<g><path style="opacity:1" fill="#0e3f5e" d="M 774.5,364.5 C 770.833,364.5 767.167,364.5 763.5,364.5C 763.013,363.527 762.513,362.527 762,361.5C 760.249,354.992 762.582,350.992 769,349.5C 777.957,351.937 779.791,356.937 774.5,364.5 Z"/></g>
</svg>
