<svg xml:space="preserve" style="max-height: 500px" viewBox="50.60248447204969 56.65856 291.47031055900624 134.56408000000002" y="0px" x="0px" xmlns:xlink="http://www.w3.org/1999/xlink" xmlns="http://www.w3.org/2000/svg" id="Layer_1" version="1.1" width="291.47031055900624" height="134.56408000000002">
<style type="text/css">
	.st0{fill:none;}
	.st1{fill:#B99930;}
	.st2{font-family:'7px2bus';}
	.st3{font-size:40.4128px;}
	.st4{fill:#073C5B;}
</style>
<rect height="144.21" width="275.53" class="st0" y="123.97" x="138.87"/>
<text transform="matrix(1 0 0 1 138.8675 152.8224)"><tspan class="st1 st2 st3" y="0" x="0">J</tspan><tspan class="st4 st2 st3" y="0" x="34.64">osour</tspan></text>
<g>
	<g>
		<path d="M141.68,179.74c0.07,1.82-0.27,3.02-1.02,3.6c-0.76,0.58-1.67,0.93-2.75,1.04h-1.13v4.64h4.15&#10;&#9;&#9;&#9;c2.75-0.04,4.63-0.69,5.65-1.96c1.02-1.27,1.51-3.06,1.47-5.38v-23.73h-6.36V179.74z" class="st4"/>
		<path d="M329.45,184.75c-0.41-0.33-0.91-0.53-1.5-0.61c-0.58-0.07-1.12,0-1.62,0.2c-0.49,0.21-0.89,0.53-1.2,0.96&#10;&#9;&#9;&#9;c-0.31,0.43-0.49,0.93-0.54,1.5c-0.06,0.57,0.04,1.09,0.28,1.56c0.24,0.48,0.62,0.86,1.15,1.16c0.52,0.3,1.12,0.42,1.78,0.38&#10;&#9;&#9;&#9;c0.66-0.05,1.24-0.27,1.71-0.69c0.48-0.41,0.78-0.91,0.92-1.48c0.14-0.58,0.11-1.13-0.08-1.67&#10;&#9;&#9;&#9;C330.16,185.52,329.86,185.08,329.45,184.75z" class="st4"/>
		<path d="M333.63,157.98l-16.51,0.03v9.49h6.58v-4.32h6.42c3.42,0.58,5.12,2.72,5.1,6.45&#10;&#9;&#9;&#9;c-0.02,3.72-2.11,5.93-6.28,6.63h-13.7v0.03h-9.76h-1.59h-9.14h-1.59H284h-1.59h-9.14h-1.59h-9.63v-0.03h-2.4v-18.31h-6.36v16.13&#10;&#9;&#9;&#9;v2.18h-4.21v-1.11v-17.21h-6.36v16.34v1.97h-4.42v-1v-17.31h-6.47v18.31h-2.67l0,0.03h-9.9h-1.59h-9.14h-1.59h-9.14h-1.59h-9.14&#10;&#9;&#9;&#9;h-1.59h-9.6v-0.03h-2.37v-18.31h-13.05c-3.06,0.4-5.25,1.74-6.58,4.05c-1.33,2.3-1.95,4.88-1.86,7.74&#10;&#9;&#9;&#9;c0.09,2.86,0.86,5.41,2.32,7.66c1.46,2.25,3.6,3.55,6.45,3.91h6.36c0,1.1-0.15,1.85-0.46,2.25c-0.31,0.41-0.76,0.69-1.38,0.85&#10;&#9;&#9;&#9;h-11.44v5.07h12.41c2.3,0.04,4.05-0.48,5.26-1.54c1.2-1.06,1.86-2.6,1.97-4.61v-2.02h1.24h1.13h9.6h1.59h9.14h1.59h9.14h1.59h9.14&#10;&#9;&#9;&#9;h1.59h9.87h0.86h25.03c1.98-0.02,3.26-0.53,3.86-1.54c0.25,0.85,0.95,1.34,2.08,1.49v0.05h10.73h1.59h9.14H284h9.14h1.59h9.14&#10;&#9;&#9;&#9;h1.59h9.76h0.97h17.15c5.39-1.15,8.22-4.97,8.47-11.46C342.08,163.36,339.34,159.4,333.63,157.98z M167.12,176.27h-5.18&#10;&#9;&#9;&#9;c-1.37-0.52-2.44-1.69-3.21-3.51c-0.77-1.82-0.91-3.74-0.4-5.77c0.5-2.03,1.92-3.37,4.26-4.02h4.53V176.27z" class="st4"/>
	</g>
</g>
<g>
	<path d="M48.72,121.46c1.58-0.89,27.24-46.92,68.75-46.23c45.46,0.76,67.1,41.37,67.1,41.37s-33.9-35.79-67.1-33.75&#10;&#9;&#9;C84.28,84.89,74.57,94.54,48.72,121.46z" class="st1"/>
	<path d="M179.42,89.08c0,0-19.91-30.86-61.95-30.86c0,0-30.25-4.95-61.16,35.43c0,0,32.2-34.16,63.12-31.24&#10;&#9;&#9;C119.44,62.41,156.11,63.17,179.42,89.08z" class="st1"/>
	<rect height="18.29" width="2.55" class="st1" y="78.03" x="72.17"/>
	<rect height="18.29" width="2.55" class="st1" y="68.13" x="87.1"/>
	<rect height="18.29" width="2.55" class="st1" y="61.46" x="102.03"/>
	<rect height="18.29" width="2.55" class="st1" y="60.7" x="116.6"/>
	<rect height="18.29" width="2.55" class="st1" y="61.46" x="130.25"/>
	<rect height="18.29" width="2.55" class="st1" y="66.7" x="145.54"/>
	<rect height="18.29" width="2.55" class="st1" y="72.7" x="159.68"/>
	<path d="M113.35,78.62c-0.36,12.33-0.67,23-0.91,32c-0.26,9.44-0.48,17.5-0.67,24.18c-0.19,6.68-0.36,12.17-0.48,16.47&#10;&#9;&#9;c-0.13,4.3-0.26,7.84-0.39,10.6c-0.13,2.76-0.23,4.95-0.29,6.55c-0.07,1.61-0.16,2.99-0.29,4.14l-55.29-15.61l-0.19,12.33&#10;&#9;&#9;l70.13,20.62c0-6.55,0.1-14.42,0.29-23.6c0.19-9.18,0.42-18.91,0.67-29.19c0.26-10.27,0.58-20.71,0.96-31.31&#10;&#9;&#9;c0.35-9.62,0.7-18.68,1.05-27.18H113.35z" class="st1"/>
</g>
</svg>