<?xml version="1.0" encoding="utf-8"?>
<!-- Generator: Adobe Illustrator 25.4.1, SVG Export Plug-In . SVG Version: 6.00 Build 0)  -->
<svg version="1.1" id="Layer_1" xmlns="http://www.w3.org/2000/svg" xmlns:xlink="http://www.w3.org/1999/xlink" x="0px" y="0px"
	 viewBox="0 0 135.85 131.87" style="enable-background:new 0 0 135.85 131.87;" xml:space="preserve">
<style type="text/css">
	.st0{fill:#B89831;}
</style>
<g>
	<path class="st0" d="M0,63.43c1.58-0.89,27.24-46.92,68.75-46.23c45.46,0.76,67.1,41.37,67.1,41.37s-33.9-35.79-67.1-33.75
		C35.56,26.86,25.85,36.51,0,63.43z"/>
	<path class="st0" d="M130.7,31.05c0,0-19.91-30.86-61.95-30.86c0,0-30.25-4.95-61.16,35.43c0,0,32.2-34.16,63.12-31.24
		C70.72,4.38,107.39,5.14,130.7,31.05z"/>
	<rect x="23.45" y="20" class="st0" width="2.55" height="18.29"/>
	<rect x="38.38" y="10.1" class="st0" width="2.55" height="18.29"/>
	<rect x="53.31" y="3.43" class="st0" width="2.55" height="18.29"/>
	<rect x="67.88" y="2.67" class="st0" width="2.55" height="18.29"/>
	<rect x="81.53" y="3.43" class="st0" width="2.55" height="18.29"/>
	<rect x="96.82" y="8.67" class="st0" width="2.55" height="18.29"/>
	<rect x="110.96" y="14.67" class="st0" width="2.55" height="18.29"/>
	<path class="st0" d="M64.63,20.59c-0.36,12.33-0.67,23-0.91,32c-0.26,9.44-0.48,17.5-0.67,24.18c-0.19,6.68-0.36,12.17-0.48,16.47
		c-0.13,4.3-0.26,7.84-0.39,10.6c-0.13,2.76-0.23,4.95-0.29,6.55c-0.07,1.61-0.16,2.99-0.29,4.14L6.31,98.92l-0.19,12.33
		l70.13,20.62c0-6.55,0.1-14.42,0.29-23.6s0.42-18.91,0.67-29.19c0.26-10.27,0.58-20.71,0.96-31.31c0.35-9.62,0.7-18.68,1.05-27.18
		H64.63z"/>
</g>
</svg>
